<?xml version="1.0" encoding="UTF-8" standalone="no"?>
<!-- Created with Inkscape (http://www.inkscape.org/) -->

<svg
   xmlns:dc="http://purl.org/dc/elements/1.1/"
   xmlns:cc="http://creativecommons.org/ns#"
   xmlns:rdf="http://www.w3.org/1999/02/22-rdf-syntax-ns#"
   xmlns:svg="http://www.w3.org/2000/svg"
   xmlns="http://www.w3.org/2000/svg"
   xmlns:inkscape="http://www.inkscape.org/namespaces/inkscape"
   version="1.1"
   width="531.22913"
   height="159.47626"
   id="svg2"
   xml:space="preserve"><metadata
     id="metadata8"><rdf:RDF><cc:Work
         rdf:about=""><dc:format>image/svg+xml</dc:format><dc:type
           rdf:resource="http://purl.org/dc/dcmitype/StillImage" /></cc:Work></rdf:RDF></metadata><defs
     id="defs6"><clipPath
       id="clipPath12"><path
         d="M 0,0 540,0 540,720 0,720 0,0 z"
         inkscape:connector-curvature="0"
         id="path14" /></clipPath><clipPath
       id="clipPath20"><path
         d="m 0,1.8311e-4 540,0 0,719.99999689 -540,0 L 0,1.8311e-4 z"
         inkscape:connector-curvature="0"
         id="path22" /></clipPath><clipPath
       id="clipPath188"><path
         d="M -5.1e-8,720 540,720 540,1.8311e-4 -5.1e-8,1.8311e-4"
         inkscape:connector-curvature="0"
         id="path190" /></clipPath><clipPath
       id="clipPath198"><path
         d="M 9.6e-8,720 540,720 540,1.8311e-4 -8.88e-7,1.8311e-4"
         inkscape:connector-curvature="0"
         id="path200" /></clipPath><clipPath
       id="clipPath208"><path
         d="M -5.17e-7,720 540,720 540,1.8311e-4 -5.17e-7,1.8311e-4"
         inkscape:connector-curvature="0"
         id="path210" /></clipPath><clipPath
       id="clipPath218"><path
         d="M 9.6e-8,720 540,720 540,1.8311e-4 -8.88e-7,1.8311e-4"
         inkscape:connector-curvature="0"
         id="path220" /></clipPath><clipPath
       id="clipPath228"><path
         d="M 9.6e-8,720 540,720 540,1.8311e-4 -8.88e-7,1.8311e-4"
         inkscape:connector-curvature="0"
         id="path230" /></clipPath><clipPath
       id="clipPath238"><path
         d="M 9.6e-8,720 540,720 540,1.8311e-4 -8.88e-7,1.8311e-4"
         inkscape:connector-curvature="0"
         id="path240" /></clipPath><clipPath
       id="clipPath290"><path
         d="M 2.56e-7,720 540,720 540,1.8311e-4 2.56e-7,1.8311e-4"
         inkscape:connector-curvature="0"
         id="path292" /></clipPath><clipPath
       id="clipPath304"><path
         d="M 2.3e-7,720 540,720 540,1.8311e-4 l -540.000001738,0"
         inkscape:connector-curvature="0"
         id="path306" /></clipPath><clipPath
       id="clipPath314"><path
         d="M -2.68e-7,720 540,720 540,1.8311e-4 l -540.000002236,0"
         inkscape:connector-curvature="0"
         id="path316" /></clipPath><clipPath
       id="clipPath332"><path
         d="M -2.52e-7,720 540,720 540,1.8311e-4 l -540.000004189,0"
         inkscape:connector-curvature="0"
         id="path334" /></clipPath><clipPath
       id="clipPath342"><path
         d="M -2.52e-7,720 540,720 540,1.8311e-4 l -540.000004189,0"
         inkscape:connector-curvature="0"
         id="path344" /></clipPath><clipPath
       id="clipPath352"><path
         d="M -2.022e-6,720 540,720 540,1.8311e-4 -5.959e-6,1.8311e-4"
         inkscape:connector-curvature="0"
         id="path354" /></clipPath><clipPath
       id="clipPath364"><path
         d="M 1.075e-6,720 540,720 540,1.8311e-4 1.075e-6,1.8311e-4"
         inkscape:connector-curvature="0"
         id="path366" /></clipPath><clipPath
       id="clipPath374"><path
         d="M -7.01e-7,720 540,720 540,1.8311e-4 -2.669e-6,1.8311e-4"
         inkscape:connector-curvature="0"
         id="path376" /></clipPath><clipPath
       id="clipPath388"><path
         d="M 3.83e-7,720 540,720 540,1.8311e-4 l -540.000001586,0"
         inkscape:connector-curvature="0"
         id="path390" /></clipPath><clipPath
       id="clipPath398"><path
         d="M 3.83e-7,720 540,720 540,1.8311e-4 l -540.000001586,0"
         inkscape:connector-curvature="0"
         id="path400" /></clipPath><clipPath
       id="clipPath408"><path
         d="M -5.67e-7,720 540,720 540,1.8311e-4 -5.67e-7,1.8311e-4"
         inkscape:connector-curvature="0"
         id="path410" /></clipPath><clipPath
       id="clipPath418"><path
         d="M 6.9e-8,720 540,720 540,1.8311e-4 -4.23e-7,1.8311e-4"
         inkscape:connector-curvature="0"
         id="path420" /></clipPath><clipPath
       id="clipPath428"><path
         d="M -1.7e-6,720 540,720 540,1.8311e-4 -1.7e-6,1.8311e-4"
         inkscape:connector-curvature="0"
         id="path430" /></clipPath><clipPath
       id="clipPath438"><path
         d="M 6.3e-8,720 540,720 540,1.8311e-4 -3.874e-6,1.8311e-4"
         inkscape:connector-curvature="0"
         id="path440" /></clipPath></defs><g
     transform="matrix(1.25,0,0,-1.25,-18.140875,885.37875)"
     clip-path="url(#clipPath12)"
     id="g10"><g
       id="g16"><g
         clip-path="url(#clipPath20)"
         id="g18"><path
           d="m 0,6.104e-6 540,0 L 540,720.00001 l -540,0 L 0,6.104e-6 z"
           inkscape:connector-curvature="0"
           id="path24"
           style="fill:#ffffff;fill-opacity:1;fill-rule:evenodd;stroke:none" /></g></g><path
       d="m 180.13,704.52 c 0,1.51 1.22,2.73 2.73,2.73 l 49.09,0 c 1.5,0 2.72,-1.22 2.72,-2.73 l 0,-10.91 c 0,-1.5 -1.22,-2.72 -2.72,-2.72 l -49.09,0 c -1.51,0 -2.73,1.22 -2.73,2.72 l 0,10.91 z"
       inkscape:connector-curvature="0"
       id="path26"
       style="fill:#595959;fill-opacity:1;fill-rule:evenodd;stroke:none" /><text
       transform="matrix(1,0,0,-1,186.29,697.03)"
       id="text28"><tspan
         x="0 3.24 6.48 9.7200003 12.96 16.200001 19.440001 22.68 25.92 29.16 32.400002 35.639999 38.880001"
         y="0"
         id="tspan30"
         style="font-size:6px;font-variant:normal;font-weight:normal;writing-mode:lr-tb;fill:#ffffff;fill-opacity:1;fill-rule:nonzero;stroke:none;font-family:Consolas;-inkscape-font-specification:Consolas">creative_work</tspan></text>
<path
       d="m 311.28,653.37 c 0,1.13 0.91,2.05 2.05,2.05 l 29.77,0 c 1.13,0 2.05,-0.92 2.05,-2.05 l 0,-8.2 c 0,-1.13 -0.92,-2.04 -2.05,-2.04 l -29.77,0 c -1.14,0 -2.05,0.91 -2.05,2.04 l 0,8.2 z"
       inkscape:connector-curvature="0"
       id="path32"
       style="fill:#ccc1da;fill-opacity:1;fill-rule:evenodd;stroke:none" /><text
       transform="matrix(1,0,0,-1,318.58,647.23)"
       id="text34"><tspan
         x="0 3.24 6.48 9.7200003 12.96 16.200001"
         y="0"
         id="tspan36"
         style="font-size:6px;font-variant:normal;font-weight:normal;writing-mode:lr-tb;fill:#000000;fill-opacity:1;fill-rule:nonzero;stroke:none;font-family:Consolas;-inkscape-font-specification:Consolas">patent</tspan></text>
<path
       d="m 297.22,596.22 c 0,1.14 0.91,2.05 2.05,2.05 l 50.44,0 c 1.13,0 2.05,-0.91 2.05,-2.05 l 0,-8.19 c 0,-1.13 -0.92,-2.05 -2.05,-2.05 l -50.44,0 c -1.14,0 -2.05,0.92 -2.05,2.05 l 0,8.19 z"
       inkscape:connector-curvature="0"
       id="path38"
       style="fill:#ccc1da;fill-opacity:1;fill-rule:evenodd;stroke:none" /><text
       transform="matrix(1,0,0,-1,303.41,590.06)"
       id="text40"><tspan
         x="0 3.24 6.48 9.7200003 12.96 16.200001 19.440001 22.68 25.92 29.16 32.400002 35.639999 38.880001"
         y="0"
         id="tspan42"
         style="font-size:6px;font-variant:normal;font-weight:normal;writing-mode:lr-tb;fill:#000000;fill-opacity:1;fill-rule:nonzero;stroke:none;font-family:Consolas;-inkscape-font-specification:Consolas">google_patent</tspan></text>
<path
       d="m 348,653.37 c 0,1.13 0.92,2.05 2.05,2.05 l 23.89,0 c 1.13,0 2.05,-0.92 2.05,-2.05 l 0,-8.2 c 0,-1.13 -0.92,-2.04 -2.05,-2.04 l -23.89,0 c -1.13,0 -2.05,0.91 -2.05,2.04 l 0,8.2 z"
       inkscape:connector-curvature="0"
       id="path44"
       style="fill:#b7dee8;fill-opacity:1;fill-rule:evenodd;stroke:none" /><text
       transform="matrix(1,0,0,-1,354,647.23)"
       id="text46"><tspan
         x="0 3.24 6.48 9.7200003 12.96"
         y="0"
         id="tspan48"
         style="font-size:6px;font-variant:normal;font-weight:normal;writing-mode:lr-tb;fill:#000000;fill-opacity:1;fill-rule:nonzero;stroke:none;font-family:Consolas;-inkscape-font-specification:Consolas">grant</tspan></text>
<path
       d="m 355.79,596.06 c 0,1.13 0.92,2.05 2.05,2.05 l 36.88,0 c 1.13,0 2.05,-0.92 2.05,-2.05 l 0,-8.2 c 0,-1.13 -0.92,-2.05 -2.05,-2.05 l -36.88,0 c -1.13,0 -2.05,0.92 -2.05,2.05 l 0,8.2 z"
       inkscape:connector-curvature="0"
       id="path50"
       style="fill:#b7dee8;fill-opacity:1;fill-rule:evenodd;stroke:none" /><text
       transform="matrix(1,0,0,-1,361.68,589.9)"
       id="text52"><tspan
         x="0 3.24 6.48 9.7200003 12.96 16.200001 19.440001 22.68 25.92"
         y="0"
         id="tspan54"
         style="font-size:6px;font-variant:normal;font-weight:normal;writing-mode:lr-tb;fill:#000000;fill-opacity:1;fill-rule:nonzero;stroke:none;font-family:Consolas;-inkscape-font-specification:Consolas">nsf_award</tspan></text>
<path
       d="m 329.67,689.12 c 0,6.33 23.92,11.46 53.44,11.46 29.51,0 53.43,-5.13 53.43,-11.46 0,-6.33 -23.92,-11.47 -53.43,-11.47 -29.52,0 -53.44,5.14 -53.44,11.47 z"
       inkscape:connector-curvature="0"
       id="path56"
       style="fill:#d9d9d9;fill-opacity:1;fill-rule:evenodd;stroke:none" /><text
       transform="matrix(1,0,0,-1,349.06,690.67)"
       id="text58"><tspan
         x="0 3.24 6.48 9.7200003 12.96 16.200001 19.440001"
         y="0"
         id="tspan60"
         style="font-size:6px;font-variant:normal;font-weight:normal;writing-mode:lr-tb;fill:#000000;fill-opacity:1;fill-rule:nonzero;stroke:none;font-family:Consolas;-inkscape-font-specification:Consolas">video, </tspan></text>
<text
       transform="matrix(1,0,0,-1,371.74,690.67)"
       id="text62"><tspan
         x="0 3.24 6.48 9.7200003 12.96 16.200001 19.440001"
         y="0"
         id="tspan64"
         style="font-size:6px;font-variant:normal;font-weight:normal;writing-mode:lr-tb;fill:#000000;fill-opacity:1;fill-rule:nonzero;stroke:none;font-family:Consolas;-inkscape-font-specification:Consolas">tv_show</tspan></text>
<text
       transform="matrix(1,0,0,-1,394.44,690.67)"
       id="text66"><tspan
         x="0 3.24 6.48 9.7200003 13.074 16.313999 19.554001 22.794001"
         y="0"
         id="tspan68"
         style="font-size:6px;font-variant:normal;font-weight:normal;writing-mode:lr-tb;fill:#000000;fill-opacity:1;fill-rule:nonzero;stroke:none;font-family:Consolas;-inkscape-font-specification:Consolas">, post, </tspan></text>
<text
       transform="matrix(1,0,0,-1,350.62,683.47)"
       id="text70"><tspan
         x="0 3.24 6.48 9.7200003 12.96 16.200001"
         y="0"
         id="tspan72"
         style="font-size:6px;font-variant:normal;font-weight:normal;writing-mode:lr-tb;fill:#000000;fill-opacity:1;fill-rule:nonzero;stroke:none;font-family:Consolas;-inkscape-font-specification:Consolas">blog, </tspan></text>
<text
       transform="matrix(1,0,0,-1,370.06,683.47)"
       id="text74"><tspan
         x="0 3.24 6.48 9.7200003 12.96 16.200001 19.440001 22.68 25.92 29.16 32.400002"
         y="0"
         id="tspan76"
         style="font-size:6px;font-variant:normal;font-weight:normal;writing-mode:lr-tb;fill:#000000;fill-opacity:1;fill-rule:nonzero;stroke:none;font-family:Consolas;-inkscape-font-specification:Consolas">amazon_list</tspan></text>
<text
       transform="matrix(1,0,0,-1,405.72,683.47)"
       id="text78"><tspan
         x="0 3.3540001 6.5939999"
         y="0"
         id="tspan80"
         style="font-size:6px;font-variant:normal;font-weight:normal;writing-mode:lr-tb;fill:#000000;fill-opacity:1;fill-rule:nonzero;stroke:none;font-family:Consolas;-inkscape-font-specification:Consolas">, …</tspan></text>
<path
       d="m 364.43,671.1 c 0,1.14 0.92,2.05 2.05,2.05 l 29.77,0 c 1.13,0 2.05,-0.91 2.05,-2.05 l 0,-8.19 c 0,-1.13 -0.92,-2.05 -2.05,-2.05 l -29.77,0 c -1.13,0 -2.05,0.92 -2.05,2.05 l 0,8.19 z"
       inkscape:connector-curvature="0"
       id="path82"
       style="fill:#fcd5b5;fill-opacity:1;fill-rule:evenodd;stroke:none" /><text
       transform="matrix(1,0,0,-1,370.08,664.97)"
       id="text84"><tspan
         x="0 3.24 6.48 9.7200003 12.96 16.200001 19.440001"
         y="0"
         id="tspan86"
         style="font-size:6px;font-variant:normal;font-weight:normal;writing-mode:lr-tb;fill:#000000;fill-opacity:1;fill-rule:nonzero;stroke:none;font-family:Consolas;-inkscape-font-specification:Consolas">artwork</tspan></text>
<path
       d="m 388.71,643.51 c 0,1.13 0.92,2.05 2.05,2.05 l 45.49,0 c 1.13,0 2.05,-0.92 2.05,-2.05 l 0,-8.19 c 0,-1.14 -0.92,-2.05 -2.05,-2.05 l -45.49,0 c -1.13,0 -2.05,0.91 -2.05,2.05 l 0,8.19 z"
       inkscape:connector-curvature="0"
       id="path88"
       style="fill:#fcd5b5;fill-opacity:1;fill-rule:evenodd;stroke:none" /><text
       transform="matrix(1,0,0,-1,394.1,637.37)"
       id="text90"><tspan
         x="0 3.24 6.48 9.7200003 12.96 16.200001 19.440001 22.68 25.92 29.16 32.400002 35.639999"
         y="0"
         id="tspan92"
         style="font-size:6px;font-variant:normal;font-weight:normal;writing-mode:lr-tb;fill:#000000;fill-opacity:1;fill-rule:nonzero;stroke:none;font-family:Consolas;-inkscape-font-specification:Consolas">moma_artwork</tspan></text>
<path
       d="m 388.71,629.37 c 0,1.14 0.92,2.05 2.05,2.05 l 45.49,0 c 1.13,0 2.05,-0.91 2.05,-2.05 l 0,-8.19 c 0,-1.13 -0.92,-2.05 -2.05,-2.05 l -45.49,0 c -1.13,0 -2.05,0.92 -2.05,2.05 l 0,8.19 z"
       inkscape:connector-curvature="0"
       id="path94"
       style="fill:#fcd5b5;fill-opacity:1;fill-rule:evenodd;stroke:none" /><text
       transform="matrix(1,0,0,-1,397.34,623.21)"
       id="text96"><tspan
         x="0 3.24 6.48 9.7200003 12.96 16.200001 19.440001 22.68 25.92 29.16"
         y="0"
         id="tspan98"
         style="font-size:6px;font-variant:normal;font-weight:normal;writing-mode:lr-tb;fill:#000000;fill-opacity:1;fill-rule:nonzero;stroke:none;font-family:Consolas;-inkscape-font-specification:Consolas">mm_artwork</tspan></text>
<path
       d="m 388.71,615.24 c 0,1.13 0.92,2.04 2.05,2.04 l 45.49,0 c 1.13,0 2.05,-0.91 2.05,-2.04 l 0,-8.2 c 0,-1.13 -0.92,-2.05 -2.05,-2.05 l -45.49,0 c -1.13,0 -2.05,0.92 -2.05,2.05 l 0,8.2 z"
       inkscape:connector-curvature="0"
       id="path100"
       style="fill:#fcd5b5;fill-opacity:1;fill-rule:evenodd;stroke:none" /><text
       transform="matrix(1,0,0,-1,402.14,609.07)"
       id="text102"><tspan
         x="0 3.24 6.48 9.7200003 12.96 16.200001 19.440001"
         y="0"
         id="tspan104"
         style="font-size:6px;font-variant:normal;font-weight:normal;writing-mode:lr-tb;fill:#000000;fill-opacity:1;fill-rule:nonzero;stroke:none;font-family:Consolas;-inkscape-font-specification:Consolas">cartoon</tspan></text>
<path
       d="m 90.135,682.25 c 0,1.13 0.917,2.04 2.049,2.04 l 23.896,0 c 1.13,0 2.05,-0.91 2.05,-2.04 l 0,-8.2 c 0,-1.13 -0.92,-2.05 -2.05,-2.05 l -23.896,0 c -1.132,0 -2.049,0.92 -2.049,2.05 l 0,8.2 z"
       inkscape:connector-curvature="0"
       id="path106"
       style="fill:#c4bd97;fill-opacity:1;fill-rule:evenodd;stroke:none" /><text
       transform="matrix(1,0,0,-1,96.072,676.1)"
       id="text108"><tspan
         x="0 3.24 6.48 9.7200003 12.96"
         y="0"
         id="tspan110"
         style="font-size:6px;font-variant:normal;font-weight:normal;writing-mode:lr-tb;fill:#000000;fill-opacity:1;fill-rule:nonzero;stroke:none;font-family:Consolas;-inkscape-font-specification:Consolas">movie</tspan></text>
<path
       d="m 22.249,689.8 c 0,1.13 0.918,2.05 2.049,2.05 l 50.448,0 c 1.131,0 2.049,-0.92 2.049,-2.05 l 0,-8.19 c 0,-1.14 -0.918,-2.05 -2.049,-2.05 l -50.448,0 c -1.131,0 -2.049,0.91 -2.049,2.05 l 0,8.19 z"
       inkscape:connector-curvature="0"
       id="path112"
       style="fill:#c4bd97;fill-opacity:1;fill-rule:evenodd;stroke:none" /><text
       transform="matrix(1,0,0,-1,33.288,683.66)"
       id="text114"><tspan
         x="0 3.24 6.48 9.7200003 12.96 16.200001 19.440001 22.68 25.92 29.16"
         y="0"
         id="tspan116"
         style="font-size:6px;font-variant:normal;font-weight:normal;writing-mode:lr-tb;fill:#000000;fill-opacity:1;fill-rule:nonzero;stroke:none;font-family:Consolas;-inkscape-font-specification:Consolas">imdb_movie</tspan></text>
<path
       d="m 22.249,673.89 c 0,1.13 0.918,2.05 2.049,2.05 l 50.448,0 c 1.131,0 2.049,-0.92 2.049,-2.05 l 0,-8.19 c 0,-1.14 -0.918,-2.05 -2.049,-2.05 l -50.448,0 c -1.131,0 -2.049,0.91 -2.049,2.05 l 0,8.19 z"
       inkscape:connector-curvature="0"
       id="path118"
       style="fill:#c4bd97;fill-opacity:1;fill-rule:evenodd;stroke:none" /><text
       transform="matrix(1,0,0,-1,28.368,667.75)"
       id="text120"><tspan
         x="0 3.24 6.48 9.7200003 12.96 16.200001 19.440001 22.68 25.92 29.16 32.400002 35.639999 38.880001"
         y="0"
         id="tspan122"
         style="font-size:6px;font-variant:normal;font-weight:normal;writing-mode:lr-tb;fill:#000000;fill-opacity:1;fill-rule:nonzero;stroke:none;font-family:Consolas;-inkscape-font-specification:Consolas">netflix_movie</tspan></text>
<path
       d="m 22.249,657.82 c 0,1.13 0.918,2.05 2.049,2.05 l 50.448,0 c 1.131,0 2.049,-0.92 2.049,-2.05 l 0,-8.2 c 0,-1.13 -0.918,-2.05 -2.049,-2.05 l -50.448,0 c -1.131,0 -2.049,0.92 -2.049,2.05 l 0,8.2 z"
       inkscape:connector-curvature="0"
       id="path124"
       style="fill:#c4bd97;fill-opacity:1;fill-rule:evenodd;stroke:none" /><text
       transform="matrix(1,0,0,-1,30.048,651.67)"
       id="text126"><tspan
         x="0 3.24 6.48 9.7200003 12.96 16.200001 19.440001 22.68 25.92 29.16 32.400002 35.639999"
         y="0"
         id="tspan128"
         style="font-size:6px;font-variant:normal;font-weight:normal;writing-mode:lr-tb;fill:#000000;fill-opacity:1;fill-rule:nonzero;stroke:none;font-family:Consolas;-inkscape-font-specification:Consolas">rotten_movie</tspan></text>
<path
       d="m 89.46,659.05 c 0,1.14 0.917,2.05 2.049,2.05 l 61.901,0 c 1.13,0 2.05,-0.91 2.05,-2.05 l 0,-8.19 c 0,-1.13 -0.92,-2.05 -2.05,-2.05 l -61.901,0 c -1.132,0 -2.049,0.92 -2.049,2.05 l 0,8.19 z"
       inkscape:connector-curvature="0"
       id="path130"
       style="fill:#dce6f2;fill-opacity:1;fill-rule:evenodd;stroke:none" /><text
       transform="matrix(1,0,0,-1,94.8,652.9)"
       id="text132"><tspan
         x="0 3.24 6.48 9.7200003 12.96 16.200001 19.440001 22.68 25.92 29.16 32.400002 35.639999 38.880001 42.119999 45.360001 48.599998 51.84"
         y="0"
         id="tspan134"
         style="font-size:6px;font-variant:normal;font-weight:normal;writing-mode:lr-tb;fill:#000000;fill-opacity:1;fill-rule:nonzero;stroke:none;font-family:Consolas;-inkscape-font-specification:Consolas">scholarly_article</tspan></text>
<path
       d="m 49.415,643.16 c 0,1.13 0.917,2.05 2.049,2.05 l 45.489,0 c 1.131,0 2.049,-0.92 2.049,-2.05 l 0,-8.2 c 0,-1.13 -0.918,-2.05 -2.049,-2.05 l -45.489,0 c -1.132,0 -2.049,0.92 -2.049,2.05 l 0,8.2 z"
       inkscape:connector-curvature="0"
       id="path136"
       style="fill:#dce6f2;fill-opacity:1;fill-rule:evenodd;stroke:none" /><text
       transform="matrix(1,0,0,-1,57.96,637.01)"
       id="text138"><tspan
         x="0 3.24 6.48 9.7200003 12.96 16.200001 19.440001 22.68 25.92 29.16"
         y="0"
         id="tspan140"
         style="font-size:6px;font-variant:normal;font-weight:normal;writing-mode:lr-tb;fill:#000000;fill-opacity:1;fill-rule:nonzero;stroke:none;font-family:Consolas;-inkscape-font-specification:Consolas">acm_portal</tspan></text>
<path
       d="m 138.82,643.16 c 0,1.13 0.92,2.05 2.05,2.05 l 68.5,0 c 1.14,0 2.05,-0.92 2.05,-2.05 l 0,-8.2 c 0,-1.13 -0.91,-2.05 -2.05,-2.05 l -68.5,0 c -1.13,0 -2.05,0.92 -2.05,2.05 l 0,8.2 z"
       inkscape:connector-curvature="0"
       id="path142"
       style="fill:#dce6f2;fill-opacity:1;fill-rule:evenodd;stroke:none" /><text
       transform="matrix(1,0,0,-1,144.29,637.01)"
       id="text144"><tspan
         x="0 3.24 6.48 9.7200003 12.96 16.200001 19.440001 22.68 25.92 29.16 32.400002 35.639999 38.880001 42.119999 45.360001 48.599998 51.84 55.080002 58.433998"
         y="0"
         id="tspan146"
         style="font-size:6px;font-variant:normal;font-weight:normal;writing-mode:lr-tb;fill:#000000;fill-opacity:1;fill-rule:nonzero;stroke:none;font-family:Consolas;-inkscape-font-specification:Consolas">ieee_xplore_article</tspan></text>
<path
       d="m 49.358,626.49 c 0,1.13 0.917,2.05 2.049,2.05 l 61.903,0 c 1.13,0 2.05,-0.92 2.05,-2.05 l 0,-8.2 c 0,-1.13 -0.92,-2.04 -2.05,-2.04 l -61.903,0 c -1.132,0 -2.049,0.91 -2.049,2.04 l 0,8.2 z"
       inkscape:connector-curvature="0"
       id="path148"
       style="fill:#dce6f2;fill-opacity:1;fill-rule:evenodd;stroke:none" /><text
       transform="matrix(1,0,0,-1,56.376,620.33)"
       id="text150"><tspan
         x="0 3.24 6.48 9.7200003 12.96 16.200001 19.440001 22.68 25.92 29.16 32.400002 35.639999 38.880001 42.119999 45.360001 48.599998"
         y="0"
         id="tspan152"
         style="font-size:6px;font-variant:normal;font-weight:normal;writing-mode:lr-tb;fill:#000000;fill-opacity:1;fill-rule:nonzero;stroke:none;font-family:Consolas;-inkscape-font-specification:Consolas">citeseerx_record</tspan></text>
<path
       d="m 15.841,605.8 c 0,1.03 0.834,1.87 1.863,1.87 l 62.274,0 c 1.029,0 1.863,-0.84 1.863,-1.87 l 0,-7.45 c 0,-1.03 -0.834,-1.86 -1.863,-1.86 l -62.274,0 c -1.029,0 -1.863,0.83 -1.863,1.86 l 0,7.45 z"
       inkscape:connector-curvature="0"
       id="path154"
       style="fill:#dce6f2;fill-opacity:1;fill-rule:evenodd;stroke:none" /><text
       transform="matrix(1,0,0,-1,21.216,600.02)"
       id="text156"><tspan
         x="0 3.24 6.48 9.7200003 12.96 16.200001 19.440001 22.68 25.92 29.16 32.400002 35.639999 38.880001 42.119999 45.360001 48.599998 51.84"
         y="0"
         id="tspan158"
         style="font-size:6px;font-variant:normal;font-weight:normal;writing-mode:lr-tb;fill:#000000;fill-opacity:1;fill-rule:nonzero;stroke:none;font-family:Consolas;-inkscape-font-specification:Consolas">citeseerx_summary</tspan></text>
<path
       d="m 57.953,592.06 c 0,1.03 0.834,1.87 1.862,1.87 l 62.275,0 c 1.03,0 1.86,-0.84 1.86,-1.87 l 0,-7.45 c 0,-1.02 -0.83,-1.86 -1.86,-1.86 l -62.275,0 c -1.028,0 -1.862,0.84 -1.862,1.86 l 0,7.45 z"
       inkscape:connector-curvature="0"
       id="path160"
       style="fill:#dce6f2;fill-opacity:1;fill-rule:evenodd;stroke:none" /><text
       transform="matrix(1,0,0,-1,63.336,586.27)"
       id="text162"><tspan
         x="0 3.24 6.48 9.7200003 12.96 16.200001 19.440001 22.68 25.92 29.16 32.400002 35.639999 38.880001 42.119999 45.360001 48.599998 51.84"
         y="0"
         id="tspan164"
         style="font-size:6px;font-variant:normal;font-weight:normal;writing-mode:lr-tb;fill:#000000;fill-opacity:1;fill-rule:nonzero;stroke:none;font-family:Consolas;-inkscape-font-specification:Consolas">citeseerx_similar</tspan></text>
<path
       d="m 132.39,627.23 c 0,1.13 0.91,2.04 2.04,2.04 l 77.94,0 c 1.14,0 2.05,-0.91 2.05,-2.04 l 0,-8.2 c 0,-1.13 -0.91,-2.05 -2.05,-2.05 l -77.94,0 c -1.13,0 -2.04,0.92 -2.04,2.05 l 0,8.2 z"
       inkscape:connector-curvature="0"
       id="path166"
       style="fill:#dce6f2;fill-opacity:1;fill-rule:evenodd;stroke:none" /><text
       transform="matrix(1,0,0,-1,137.69,621.07)"
       id="text168"><tspan
         x="0 3.24 6.48 9.7200003 12.96 16.200001 19.440001 22.68 25.92 29.16 32.400002 35.639999 38.880001 42.119999 45.360001 48.599998 51.84 55.080002 58.433998 61.674 64.914001 68.153999"
         y="0"
         id="tspan170"
         style="font-size:6px;font-variant:normal;font-weight:normal;writing-mode:lr-tb;fill:#000000;fill-opacity:1;fill-rule:nonzero;stroke:none;font-family:Consolas;-inkscape-font-specification:Consolas">science_direct_article</tspan></text>
<path
       d="m 132.27,609.46 c 0,1.13 0.91,2.05 2.05,2.05 l 50.44,0 c 1.13,0 2.05,-0.92 2.05,-2.05 l 0,-8.2 c 0,-1.13 -0.92,-2.05 -2.05,-2.05 l -50.44,0 c -1.14,0 -2.05,0.92 -2.05,2.05 l 0,8.2 z"
       inkscape:connector-curvature="0"
       id="path172"
       style="fill:#dce6f2;fill-opacity:1;fill-rule:evenodd;stroke:none" /><text
       transform="matrix(1,0,0,-1,136.85,603.29)"
       id="text174"><tspan
         x="0 3.24 6.48 9.7200003 12.96 16.200001 19.440001 22.68 25.92 29.16 32.400002 35.639999 38.880001 42.119999"
         y="0"
         id="tspan176"
         style="font-size:6px;font-variant:normal;font-weight:normal;writing-mode:lr-tb;fill:#000000;fill-opacity:1;fill-rule:nonzero;stroke:none;font-family:Consolas;-inkscape-font-specification:Consolas">scopus_article</tspan></text>
<path
       d="m 130.55,592.49 c 0,1.13 0.91,2.05 2.05,2.05 l 50.44,0 c 1.13,0 2.05,-0.92 2.05,-2.05 l 0,-8.19 c 0,-1.14 -0.92,-2.05 -2.05,-2.05 l -50.44,0 c -1.14,0 -2.05,0.91 -2.05,2.05 l 0,8.19 z"
       inkscape:connector-curvature="0"
       id="path178"
       style="fill:#dce6f2;fill-opacity:1;fill-rule:evenodd;stroke:none" /><text
       transform="matrix(1,0,0,-1,135.14,586.32)"
       id="text180"><tspan
         x="0 3.24 6.48 9.7200003 12.96 16.200001 19.440001 22.68 25.92 29.16 32.400002 35.639999 38.880001 42.119999"
         y="0"
         id="tspan182"
         style="font-size:6px;font-variant:normal;font-weight:normal;writing-mode:lr-tb;fill:#000000;fill-opacity:1;fill-rule:nonzero;stroke:none;font-family:Consolas;-inkscape-font-specification:Consolas">pubmed_article</tspan></text>
<g
       id="g184"><g
         clip-path="url(#clipPath188)"
         id="g186"><path
           d="m 119.84,644.5 -0.67,-0.84 c -0.04,-0.04 -0.08,-0.08 -0.13,-0.11 l -0.65,-0.4 -1.45,-0.77 -1.6,-0.73 -1.75,-0.67 -1.85,-0.6 -1.97,-0.53 -2.05,-0.44 -2.11,-0.36 -2.17,-0.27 -2.2,-0.17 -2.221,-0.05 -0.023,1 2.174,0.05 2.15,0.16 2.12,0.26 2.07,0.36 2,0.43 1.92,0.52 1.81,0.57 1.69,0.65 1.54,0.7 1.4,0.74 0.65,0.4 -0.13,-0.12 0.66,0.84 0.79,-0.62 z m -3.39,1.33 6.01,2.97 -1.23,-6.59 -4.78,3.62 z"
           inkscape:connector-curvature="0"
           id="path192"
           style="fill:#7f7f7f;fill-opacity:1;fill-rule:nonzero;stroke:none" /></g></g><g
       id="g194"><g
         clip-path="url(#clipPath198)"
         id="g196"><path
           d="m 124.52,644.21 0.53,-0.89 c 0.03,-0.05 0.08,-0.1 0.13,-0.14 l 0.99,-0.76 1.13,-0.73 1.23,-0.68 1.31,-0.6 1.38,-0.54 1.45,-0.45 1.48,-0.37 1.54,-0.26 1.54,-0.17 1.58,-0.06 0.03,1 -1.5,0.05 -1.48,0.16 -1.47,0.26 -1.43,0.35 -1.38,0.42 -1.32,0.51 -1.25,0.57 -1.16,0.64 -1.07,0.69 -0.99,0.76 0.12,-0.14 -0.53,0.89 -0.86,-0.51 z m 3.53,0.89 -5.59,3.7 0.39,-6.69 5.2,2.99 z"
           inkscape:connector-curvature="0"
           id="path202"
           style="fill:#7f7f7f;fill-opacity:1;fill-rule:nonzero;stroke:none" /></g></g><g
       id="g204"><g
         clip-path="url(#clipPath208)"
         id="g206"><path
           d="m 122.76,643.77 -0.15,-2.34 -0.26,-2.38 -0.32,-2.29 -0.39,-2.2 -0.43,-2.09 -0.48,-1.95 -0.53,-1.79 -0.27,-0.84 -0.29,-0.8 -0.29,-0.74 -0.31,-0.7 -0.31,-0.64 -0.32,-0.59 -0.33,-0.54 -0.33,-0.47 -0.35,-0.43 -0.37,-0.36 -0.36,-0.29 c -0.02,-0.01 -0.04,-0.03 -0.06,-0.04 l -0.33,-0.19 c -0.03,-0.01 -0.06,-0.03 -0.09,-0.04 l -0.34,-0.11 c -0.03,-0.01 -0.06,-0.02 -0.1,-0.02 l -0.33,-0.04 -0.11,0.99 0.33,0.04 -0.1,-0.02 0.33,0.11 -0.08,-0.04 0.33,0.19 -0.07,-0.04 0.29,0.22 0.29,0.28 0.3,0.36 0.3,0.42 0.3,0.5 0.3,0.55 0.29,0.6 0.3,0.67 0.28,0.71 0.28,0.77 0.26,0.81 0.51,1.76 0.48,1.9 0.42,2.06 0.38,2.17 0.33,2.26 0.25,2.33 0.15,2.35 1,-0.07 z m -3.54,-0.84 3.24,5.87 2.75,-6.11 -5.99,0.24 z"
           inkscape:connector-curvature="0"
           id="path212"
           style="fill:#7f7f7f;fill-opacity:1;fill-rule:nonzero;stroke:none" /></g></g><g
       id="g214"><g
         clip-path="url(#clipPath218)"
         id="g216"><path
           d="m 122.26,643.77 0.19,-2.15 0.37,-2.32 0.45,-2.24 0.53,-2.15 0.62,-2.03 0.67,-1.9 0.74,-1.75 0.39,-0.83 0.4,-0.77 0.42,-0.73 0.43,-0.68 0.43,-0.62 0.45,-0.58 0.45,-0.52 0.48,-0.47 0.48,-0.4 0.49,-0.34 0.51,-0.28 0.52,-0.2 0.53,-0.14 c 0.02,0 0.05,-0.01 0.07,-0.01 l 0.47,-0.04 0.08,1 -0.46,0.04 0.07,-0.01 -0.4,0.09 -0.41,0.15 -0.41,0.22 -0.42,0.29 -0.42,0.35 -0.42,0.41 -0.42,0.48 -0.42,0.53 -0.41,0.59 -0.41,0.64 -0.39,0.69 -0.38,0.75 -0.38,0.78 -0.71,1.7 -0.66,1.85 -0.6,1.98 -0.52,2.1 -0.45,2.2 -0.36,2.26 -0.19,2.15 -1,-0.09 z m 3.55,-0.78 -3.35,5.81 -2.64,-6.17 5.99,0.36 z"
           inkscape:connector-curvature="0"
           id="path222"
           style="fill:#7f7f7f;fill-opacity:1;fill-rule:nonzero;stroke:none" /></g></g><g
       id="g224"><g
         clip-path="url(#clipPath228)"
         id="g226"><path
           d="m 122.07,643.79 0.11,-3.1 0.27,-4 0.35,-3.89 0.45,-3.76 0.25,-1.82 0.27,-1.79 0.3,-1.73 0.31,-1.68 0.32,-1.63 0.34,-1.56 0.35,-1.51 0.37,-1.43 0.38,-1.37 0.39,-1.29 0.41,-1.21 0.41,-1.14 0.43,-1.04 0.44,-0.96 0.44,-0.86 0.45,-0.77 0.47,-0.68 0.48,-0.56 0.5,-0.47 c 0.02,-0.02 0.04,-0.03 0.06,-0.04 l 0.46,-0.31 c 0.02,-0.02 0.05,-0.04 0.09,-0.05 l 0.45,-0.19 c 0.04,-0.01 0.08,-0.03 0.13,-0.03 l 0.45,-0.06 0.13,0.99 -0.45,0.06 0.12,-0.03 -0.46,0.19 0.09,-0.05 -0.45,0.31 0.06,-0.05 -0.42,0.37 -0.42,0.5 -0.43,0.6 -0.42,0.73 -0.43,0.82 -0.41,0.92 -0.42,1.01 -0.41,1.1 -0.39,1.19 -0.39,1.27 -0.38,1.35 -0.35,1.41 -0.35,1.49 -0.34,1.55 -0.32,1.61 -0.31,1.67 -0.29,1.71 -0.27,1.77 -0.24,1.81 -0.45,3.74 -0.35,3.86 -0.27,3.96 -0.11,3.1 -1,-0.03 z m 3.52,-0.92 -3.13,5.93 -2.86,-6.06 5.99,0.13 z"
           inkscape:connector-curvature="0"
           id="path232"
           style="fill:#7f7f7f;fill-opacity:1;fill-rule:nonzero;stroke:none" /></g></g><g
       id="g234"><g
         clip-path="url(#clipPath238)"
         id="g236"><path
           d="m 122,643.79 0.14,-6.26 0.22,-5.54 0.3,-5.39 0.17,-2.64 0.2,-2.59 0.2,-2.53 0.22,-2.47 0.24,-2.4 0.26,-2.34 0.26,-2.25 0.28,-2.18 0.29,-2.08 0.31,-1.98 0.31,-1.9 0.33,-1.79 0.33,-1.68 0.34,-1.56 0.34,-1.44 0.36,-1.32 0.36,-1.19 0.37,-1.05 0.38,-0.91 0.39,-0.78 0.4,-0.63 c 0.01,-0.02 0.03,-0.04 0.04,-0.06 l 0.38,-0.42 c 0.03,-0.04 0.06,-0.06 0.09,-0.09 l 0.38,-0.25 c 0.05,-0.04 0.11,-0.06 0.17,-0.08 l 0.38,-0.09 0.23,0.98 -0.39,0.09 0.17,-0.08 -0.37,0.26 0.09,-0.09 -0.37,0.43 0.04,-0.06 -0.35,0.54 -0.36,0.71 -0.36,0.86 -0.35,1.02 -0.35,1.15 -0.35,1.29 -0.35,1.42 -0.33,1.55 -0.33,1.66 -0.32,1.77 -0.32,1.88 -0.29,1.98 -0.3,2.07 -0.27,2.16 -0.27,2.25 -0.25,2.33 -0.24,2.39 -0.22,2.46 -0.21,2.52 -0.19,2.59 -0.17,2.62 -0.3,5.38 -0.22,5.52 -0.14,6.26 -1,-0.02 z m 3.51,-0.96 -3.05,5.97 -2.95,-6.02 6,0.05 z"
           inkscape:connector-curvature="0"
           id="path242"
           style="fill:#7f7f7f;fill-opacity:1;fill-rule:nonzero;stroke:none" /></g></g><path
       d="m 240.29,654.7 c 0,1.13 0.92,2.05 2.05,2.05 l 62.62,0 c 1.13,0 2.05,-0.92 2.05,-2.05 l 0,-8.2 c 0,-1.13 -0.92,-2.05 -2.05,-2.05 l -62.62,0 c -1.13,0 -2.05,0.92 -2.05,2.05 l 0,8.2 z"
       inkscape:connector-curvature="0"
       id="path244"
       style="fill:#d7e4bd;fill-opacity:1;fill-rule:evenodd;stroke:none" /><text
       transform="matrix(1,0,0,-1,246.02,648.55)"
       id="text246"><tspan
         x="0 3.24 6.48 9.7200003 12.96 16.200001 19.440001 22.68 25.92 29.16 32.400002 35.639999 38.880001 42.119999 45.360001 48.599998 51.84"
         y="0"
         id="tspan248"
         style="font-size:6px;font-variant:normal;font-weight:normal;writing-mode:lr-tb;fill:#000000;fill-opacity:1;fill-rule:nonzero;stroke:none;font-family:Consolas;-inkscape-font-specification:Consolas">basic_publication</tspan></text>
<path
       d="m 220.6,638.47 c 0,1.13 0.92,2.05 2.05,2.05 l 40.98,0 c 1.13,0 2.05,-0.92 2.05,-2.05 l 0,-8.19 c 0,-1.13 -0.92,-2.05 -2.05,-2.05 l -40.98,0 c -1.13,0 -2.05,0.92 -2.05,2.05 l 0,8.19 z"
       inkscape:connector-curvature="0"
       id="path250"
       style="fill:#d7e4bd;fill-opacity:1;fill-rule:evenodd;stroke:none" /><text
       transform="matrix(1,0,0,-1,225.24,632.33)"
       id="text252"><tspan
         x="0 3.24 6.48 9.7200003 12.96 16.200001 19.440001 22.68 25.92 29.16 32.400002"
         y="0"
         id="tspan254"
         style="font-size:6px;font-variant:normal;font-weight:normal;writing-mode:lr-tb;fill:#000000;fill-opacity:1;fill-rule:nonzero;stroke:none;font-family:Consolas;-inkscape-font-specification:Consolas">publication</tspan></text>
<path
       d="m 227.14,617.1 c 0,1.13 0.92,2.05 2.05,2.05 l 19.04,0 c 1.13,0 2.05,-0.92 2.05,-2.05 l 0,-8.2 c 0,-1.13 -0.92,-2.05 -2.05,-2.05 l -19.04,0 c -1.13,0 -2.05,0.92 -2.05,2.05 l 0,8.2 z"
       inkscape:connector-curvature="0"
       id="path256"
       style="fill:#d7e4bd;fill-opacity:1;fill-rule:evenodd;stroke:none" /><text
       transform="matrix(1,0,0,-1,232.27,610.94)"
       id="text258"><tspan
         x="0 3.24 6.48 9.7200003"
         y="0"
         id="tspan260"
         style="font-size:6px;font-variant:normal;font-weight:normal;writing-mode:lr-tb;fill:#000000;fill-opacity:1;fill-rule:nonzero;stroke:none;font-family:Consolas;-inkscape-font-specification:Consolas">book</tspan></text>
<path
       d="m 195.02,600.69 c 0,1.13 0.92,2.05 2.05,2.05 l 40.98,0 c 1.14,0 2.05,-0.92 2.05,-2.05 l 0,-8.19 c 0,-1.14 -0.91,-2.05 -2.05,-2.05 l -40.98,0 c -1.13,0 -2.05,0.91 -2.05,2.05 l 0,8.19 z"
       inkscape:connector-curvature="0"
       id="path262"
       style="fill:#d7e4bd;fill-opacity:1;fill-rule:evenodd;stroke:none" /><text
       transform="matrix(1,0,0,-1,199.66,594.53)"
       id="text264"><tspan
         x="0 3.24 6.48 9.7200003 12.96 16.200001 19.440001 22.68 25.92 29.16 32.400002"
         y="0"
         id="tspan266"
         style="font-size:6px;font-variant:normal;font-weight:normal;writing-mode:lr-tb;fill:#000000;fill-opacity:1;fill-rule:nonzero;stroke:none;font-family:Consolas;-inkscape-font-specification:Consolas">amazon_book</tspan></text>
<path
       d="m 246.2,596.06 c 0,1.13 0.91,2.05 2.05,2.05 l 40.98,0 c 1.13,0 2.05,-0.92 2.05,-2.05 l 0,-8.2 c 0,-1.13 -0.92,-2.05 -2.05,-2.05 l -40.98,0 c -1.14,0 -2.05,0.92 -2.05,2.05 l 0,8.2 z"
       inkscape:connector-curvature="0"
       id="path268"
       style="fill:#d7e4bd;fill-opacity:1;fill-rule:evenodd;stroke:none" /><text
       transform="matrix(1,0,0,-1,250.82,589.9)"
       id="text270"><tspan
         x="0 3.24 6.48 9.7200003 12.96 16.200001 19.440001 22.68 25.92 29.16 32.400002"
         y="0"
         id="tspan272"
         style="font-size:6px;font-variant:normal;font-weight:normal;writing-mode:lr-tb;fill:#000000;fill-opacity:1;fill-rule:nonzero;stroke:none;font-family:Consolas;-inkscape-font-specification:Consolas">google_book</tspan></text>
<path
       d="m 272.05,631.24 c 0,1.13 0.92,2.05 2.05,2.05 l 40.98,0 c 1.13,0 2.05,-0.92 2.05,-2.05 l 0,-8.19 c 0,-1.14 -0.92,-2.05 -2.05,-2.05 l -40.98,0 c -1.13,0 -2.05,0.91 -2.05,2.05 l 0,8.19 z"
       inkscape:connector-curvature="0"
       id="path274"
       style="fill:#d7e4bd;fill-opacity:1;fill-rule:evenodd;stroke:none" /><text
       transform="matrix(1,0,0,-1,278.38,625.08)"
       id="text276"><tspan
         x="0 3.24 6.48 9.7200003 12.96 16.200001 19.440001 22.68 25.92 29.16"
         y="0"
         id="tspan278"
         style="font-size:6px;font-variant:normal;font-weight:normal;writing-mode:lr-tb;fill:#000000;fill-opacity:1;fill-rule:nonzero;stroke:none;font-family:Consolas;-inkscape-font-specification:Consolas">periodical</tspan></text>
<path
       d="m 262.96,612.68 c 0,1.13 0.92,2.05 2.05,2.05 l 50.45,0 c 1.13,0 2.05,-0.92 2.05,-2.05 l 0,-8.2 c 0,-1.13 -0.92,-2.05 -2.05,-2.05 l -50.45,0 c -1.13,0 -2.05,0.92 -2.05,2.05 l 0,8.2 z"
       inkscape:connector-curvature="0"
       id="path280"
       style="fill:#d7e4bd;fill-opacity:1;fill-rule:evenodd;stroke:none" /><text
       transform="matrix(1,0,0,-1,267.58,606.53)"
       id="text282"><tspan
         x="0 3.24 6.48 9.7200003 12.96 16.200001 19.440001 22.68 25.92 29.16 32.400002 35.639999 38.880001 42.119999"
         y="0"
         id="tspan284"
         style="font-size:6px;font-variant:normal;font-weight:normal;writing-mode:lr-tb;fill:#000000;fill-opacity:1;fill-rule:nonzero;stroke:none;font-family:Consolas;-inkscape-font-specification:Consolas">acm_periodical</tspan></text>
<g
       id="g286"><g
         clip-path="url(#clipPath290)"
         id="g288"><path
           d="m 272.71,639.47 -0.54,-1.39 c -0.02,-0.05 -0.04,-0.08 -0.06,-0.12 l -0.54,-0.73 -0.61,-0.71 -0.65,-0.64 -0.69,-0.57 -0.73,-0.49 -0.76,-0.4 -0.78,-0.29 -0.81,-0.19 -0.81,-0.07 -0.08,1 0.67,0.05 0.68,0.15 0.67,0.24 0.67,0.34 0.64,0.43 0.62,0.51 0.6,0.58 0.56,0.65 0.54,0.73 -0.06,-0.11 0.54,1.4 0.93,-0.37 z m -3.62,0.07 4.56,4.91 1.2,-6.6 -5.76,1.69 z"
           inkscape:connector-curvature="0"
           id="path294"
           style="fill:#7f7f7f;fill-opacity:1;fill-rule:nonzero;stroke:none" /></g></g><path
       d="m 239.16,618.93 2.24,4.59 -0.9,0.43 -2.24,-4.58 0.9,-0.44 z m 4.05,2.59 -0.07,6.71 -5.33,-4.08 5.4,-2.63 z"
       inkscape:connector-curvature="0"
       id="path296"
       style="fill:#7f7f7f;fill-opacity:1;fill-rule:nonzero;stroke:none" /><path
       d="m 222.28,611.57 -1.24,-0.64 c -0.05,-0.02 -0.09,-0.05 -0.13,-0.09 l -0.7,-0.7 -0.67,-0.78 -0.61,-0.83 -0.53,-0.88 -0.46,-0.93 -0.37,-0.95 -0.27,-0.99 -0.17,-1 -0.06,-1.02 1,-0.05 0.04,0.9 0.16,0.91 0.24,0.89 0.33,0.87 0.42,0.85 0.48,0.81 0.55,0.77 0.62,0.72 0.71,0.7 -0.13,-0.09 1.25,0.64 -0.46,0.89 z m 0.43,-3.6 4.43,5.03 -6.68,0.53 2.25,-5.56 z"
       inkscape:connector-curvature="0"
       id="path298"
       style="fill:#7f7f7f;fill-opacity:1;fill-rule:nonzero;stroke:none" /><g
       id="g300"><g
         clip-path="url(#clipPath304)"
         id="g302"><path
           d="m 242.29,603.31 0.8,-0.63 c 0.05,-0.04 0.1,-0.07 0.16,-0.09 l 1.09,-0.36 1.2,-0.35 1.26,-0.3 1.32,-0.25 1.36,-0.2 1.39,-0.16 1.42,-0.09 1.42,-0.03 2.8,-0.07 2.69,-0.21 1.28,-0.14 1.22,-0.18 1.17,-0.19 1.08,-0.21 0.99,-0.24 0.89,-0.25 0.78,-0.26 0.65,-0.27 0.51,-0.26 -0.07,0.04 0.4,-0.3 -0.08,0.08 0.26,-0.3 -0.11,0.19 0.09,-0.31 0.96,0.26 -0.08,0.31 c -0.02,0.07 -0.05,0.14 -0.1,0.19 l -0.26,0.3 c -0.02,0.03 -0.05,0.06 -0.08,0.08 l -0.4,0.3 c -0.03,0.02 -0.05,0.03 -0.07,0.04 l -0.59,0.31 -0.72,0.3 -0.82,0.26 -0.93,0.26 -1.03,0.25 -1.11,0.22 -1.19,0.2 -1.25,0.17 -1.32,0.15 -2.73,0.2 -2.8,0.08 -1.39,0.03 -1.37,0.09 -1.35,0.14 -1.32,0.2 -1.28,0.25 -1.21,0.28 -1.16,0.33 -1.1,0.37 0.16,-0.08 -0.8,0.64 -0.63,-0.79 z m 2.98,2.1 -6.55,1.44 2.78,-6.11 3.77,4.67 z"
           inkscape:connector-curvature="0"
           id="path308"
           style="fill:#7f7f7f;fill-opacity:1;fill-rule:nonzero;stroke:none" /></g></g><g
       id="g310"><g
         clip-path="url(#clipPath314)"
         id="g312"><path
           d="m 276.86,640.48 1.36,-0.98 c 0.04,-0.03 0.08,-0.06 0.13,-0.07 l 0.86,-0.3 0.93,-0.27 0.97,-0.21 0.99,-0.15 0.99,-0.1 1.02,-0.03 0.98,-0.03 0.93,-0.1 0.94,-0.15 0.9,-0.19 0.87,-0.25 0.84,-0.29 0.8,-0.32 0.73,-0.37 0.68,-0.39 0.59,-0.41 0.53,-0.44 0.44,-0.45 0.34,-0.45 -0.04,0.06 0.28,-0.51 -0.03,0.09 0.17,-0.52 -0.02,0.1 0.06,-0.52 0.99,0.11 -0.06,0.53 c 0,0.03 -0.01,0.07 -0.02,0.1 l -0.18,0.52 c -0.01,0.03 -0.02,0.05 -0.03,0.08 l -0.29,0.51 c -0.01,0.02 -0.02,0.04 -0.04,0.06 l -0.42,0.54 -0.51,0.52 -0.6,0.49 -0.66,0.46 -0.73,0.41 -0.8,0.4 -0.86,0.35 -0.88,0.3 -0.93,0.26 -0.97,0.21 -0.99,0.15 -1,0.1 -0.98,0.03 -0.95,0.03 -0.94,0.1 -0.93,0.14 -0.91,0.2 -0.87,0.24 -0.86,0.3 0.13,-0.06 -1.36,0.98 -0.59,-0.81 z m 3.14,1.79 -6.35,2.18 2.06,-6.38 4.29,4.2 z"
           inkscape:connector-curvature="0"
           id="path318"
           style="fill:#7f7f7f;fill-opacity:1;fill-rule:nonzero;stroke:none" /></g></g><path
       d="m 290.64,614.44 1.51,2.17 -0.82,0.57 -1.51,-2.17 0.82,-0.57 z m 2.99,-0.08 0.96,6.64 -5.89,-3.22 4.93,-3.42 z"
       inkscape:connector-curvature="0"
       id="path320"
       style="fill:#7f7f7f;fill-opacity:1;fill-rule:nonzero;stroke:none" /><path
       d="m 85.222,679.31 -1.064,0.43 c -0.068,0.03 -0.129,0.07 -0.179,0.12 l -0.307,0.33 -0.282,0.39 -0.216,0.41 c -0.013,0.02 -0.024,0.05 -0.033,0.08 l -0.112,0.35 c -0.011,0.03 -0.018,0.06 -0.021,0.1 l -0.038,0.35 -0.037,0.35 0.021,-0.1 -0.113,0.36 0.033,-0.08 -0.18,0.34 -0.204,0.28 -0.266,0.28 -0.315,0.27 -0.374,0.28 -0.41,0.24 -0.972,0.46 -1.066,0.36 -1.14,0.22 -1.18,0.07 0.066,1 1.31,-0.09 1.26,-0.26 1.184,-0.39 1.053,-0.51 0.49,-0.3 0.436,-0.33 0.39,-0.34 0.349,-0.38 0.276,-0.4 0.18,-0.34 c 0.013,-0.03 0.024,-0.05 0.033,-0.08 l 0.112,-0.35 c 0.011,-0.04 0.018,-0.07 0.021,-0.1 l 0.038,-0.35 0.037,-0.36 -0.021,0.1 0.113,-0.35 -0.033,0.08 0.144,-0.29 0.198,-0.28 0.308,-0.33 -0.179,0.12 1.064,-0.43 -0.374,-0.93 z m 0.221,3.63 4.692,-4.8 -6.651,-0.87 1.959,5.67 z"
       inkscape:connector-curvature="0"
       id="path322"
       style="fill:#7f7f7f;fill-opacity:1;fill-rule:nonzero;stroke:none" /><path
       d="m 85.242,676.84 -1.11,-0.52 c -0.064,-0.04 -0.121,-0.08 -0.167,-0.13 l -0.308,-0.36 -0.281,-0.43 -0.211,-0.44 c -0.011,-0.03 -0.021,-0.05 -0.028,-0.08 l -0.112,-0.39 c -0.009,-0.03 -0.015,-0.06 -0.018,-0.09 l -0.037,-0.39 -0.038,-0.39 0.018,0.09 -0.113,-0.39 0.028,0.08 -0.18,-0.38 -0.206,-0.31 -0.269,-0.31 -0.322,-0.31 -0.371,-0.3 -0.417,-0.28 -0.963,-0.51 -1.064,-0.38 -1.135,-0.25 -0.575,-0.06 -0.581,-0.02 0.036,-1 0.664,0.02 0.67,0.09 1.265,0.28 1.186,0.44 1.062,0.56 0.483,0.33 0.439,0.36 0.383,0.38 0.346,0.41 0.274,0.43 0.18,0.38 c 0.011,0.03 0.021,0.05 0.028,0.08 l 0.112,0.39 c 0.009,0.03 0.015,0.06 0.018,0.09 l 0.037,0.39 0.038,0.39 -0.018,-0.09 0.113,0.39 -0.028,-0.08 0.149,0.33 0.199,0.32 0.307,0.36 -0.167,-0.13 1.109,0.52 -0.425,0.91 z m 0.332,-3.62 4.561,4.92 -6.672,0.7 2.111,-5.62 z"
       inkscape:connector-curvature="0"
       id="path324"
       style="fill:#7f7f7f;fill-opacity:1;fill-rule:nonzero;stroke:none" /><path
       d="m 85.911,675.24 -1.199,-1.5 c -0.028,-0.03 -0.052,-0.07 -0.07,-0.11 l -0.405,-0.95 -0.364,-1.05 -0.315,-1.07 -0.249,-1.12 -0.185,-1.15 -0.117,-1.17 -0.039,-1.17 -0.038,-1.15 -0.11,-1.1 -0.176,-1.09 -0.235,-1.05 -0.299,-1.03 -0.345,-0.99 -0.393,-0.92 -0.436,-0.86 -0.471,-0.8 -0.502,-0.7 -0.524,-0.62 -0.54,-0.51 -0.549,-0.42 0.068,0.05 -0.607,-0.33 0.074,0.04 -0.622,-0.21 0.106,0.02 -0.623,-0.07 0.108,-0.99 0.622,0.07 c 0.036,0 0.072,0.01 0.106,0.02 l 0.623,0.21 c 0.026,0.01 0.051,0.02 0.074,0.03 l 0.608,0.32 c 0.024,0.02 0.046,0.03 0.068,0.05 l 0.636,0.48 0.615,0.6 0.571,0.68 0.548,0.77 0.504,0.86 0.464,0.92 0.417,0.98 0.36,1.04 0.316,1.09 0.245,1.12 0.184,1.14 0.115,1.17 0.037,1.15 0.036,1.1 0.108,1.11 0.175,1.09 0.231,1.06 0.3,1.02 0.341,0.98 0.405,0.96 -0.07,-0.12 1.199,1.5 -0.781,0.62 z m 1.55,-3.25 2.674,6.15 -6.526,-1.55 3.852,-4.6 z"
       inkscape:connector-curvature="0"
       id="path326"
       style="fill:#7f7f7f;fill-opacity:1;fill-rule:nonzero;stroke:none" /><g
       id="g328"><g
         clip-path="url(#clipPath332)"
         id="g330"><path
           d="m 381.17,655.81 0.33,-2.89 0.34,-1.88 0.4,-1.79 0.44,-1.7 0.51,-1.59 0.54,-1.47 0.58,-1.32 0.63,-1.18 0.33,-0.54 0.34,-0.48 0.33,-0.44 0.36,-0.39 0.37,-0.35 0.37,-0.29 0.39,-0.24 0.38,-0.18 c 0.03,-0.01 0.05,-0.02 0.08,-0.03 l 0.35,-0.09 c 0.03,-0.01 0.05,-0.01 0.08,-0.02 l 0.35,-0.03 0.08,1 -0.34,0.03 0.08,-0.01 -0.34,0.09 0.08,-0.03 -0.29,0.13 -0.29,0.17 -0.3,0.23 -0.31,0.28 -0.3,0.34 -0.31,0.41 -0.31,0.43 -0.3,0.48 -0.59,1.11 -0.56,1.28 -0.53,1.41 -0.49,1.54 -0.44,1.67 -0.38,1.75 -0.34,1.82 -0.32,2.88 -1,-0.11 z m 3.56,-0.76 -3.36,5.8 -2.63,-6.17 5.99,0.37 z"
           inkscape:connector-curvature="0"
           id="path336"
           style="fill:#7f7f7f;fill-opacity:1;fill-rule:nonzero;stroke:none" /></g></g><g
       id="g338"><g
         clip-path="url(#clipPath342)"
         id="g340"><path
           d="m 380.99,655.84 0.04,-1.64 0.2,-3.27 0.27,-3.18 0.34,-3.08 0.39,-2.95 0.22,-1.43 0.22,-1.38 0.25,-1.33 0.25,-1.29 0.27,-1.23 0.28,-1.18 0.27,-1.11 0.3,-1.06 0.3,-0.99 0.32,-0.93 0.32,-0.86 0.33,-0.79 0.33,-0.71 0.34,-0.63 0.36,-0.56 0.35,-0.46 0.39,-0.4 0.39,-0.3 c 0.03,-0.03 0.06,-0.05 0.1,-0.06 l 0.35,-0.15 c 0.04,-0.02 0.08,-0.03 0.12,-0.04 l 0.34,-0.05 0.16,0.99 -0.35,0.05 0.12,-0.03 -0.34,0.15 0.1,-0.06 -0.28,0.21 -0.3,0.29 -0.31,0.4 -0.32,0.5 -0.32,0.58 -0.31,0.67 -0.32,0.74 -0.31,0.84 -0.3,0.9 -0.3,0.97 -0.29,1.03 -0.27,1.1 -0.28,1.16 -0.26,1.22 -0.25,1.27 -0.24,1.31 -0.22,1.37 -0.22,1.41 -0.39,2.93 -0.33,3.05 -0.27,3.16 -0.2,3.24 -0.04,1.64 -1,-0.03 z m 3.52,-0.91 -3.14,5.92 -2.86,-6.06 6,0.14 z"
           inkscape:connector-curvature="0"
           id="path346"
           style="fill:#7f7f7f;fill-opacity:1;fill-rule:nonzero;stroke:none" /></g></g><g
       id="g348"><g
         clip-path="url(#clipPath352)"
         id="g350"><path
           d="m 380.93,655.84 0.1,-4.27 0.2,-4.56 0.27,-4.44 0.16,-2.17 0.18,-2.13 0.18,-2.09 0.21,-2.03 0.22,-1.98 0.22,-1.92 0.24,-1.86 0.26,-1.79 0.26,-1.72 0.28,-1.63 0.28,-1.56 0.29,-1.48 0.3,-1.38 0.31,-1.28 0.32,-1.19 0.33,-1.09 0.33,-0.98 0.33,-0.87 0.35,-0.77 0.35,-0.63 0.38,-0.54 0.38,-0.4 c 0.03,-0.03 0.06,-0.06 0.1,-0.08 l 0.34,-0.21 c 0.05,-0.03 0.1,-0.05 0.16,-0.07 l 0.34,-0.07 0.22,0.98 -0.35,0.07 0.15,-0.06 -0.34,0.21 0.1,-0.08 -0.29,0.3 -0.31,0.42 -0.32,0.58 -0.32,0.71 -0.33,0.82 -0.31,0.96 -0.32,1.05 -0.31,1.17 -0.31,1.26 -0.3,1.37 -0.29,1.46 -0.27,1.55 -0.28,1.62 -0.26,1.7 -0.26,1.78 -0.24,1.85 -0.22,1.9 -0.22,1.98 -0.2,2.02 -0.19,2.08 -0.18,2.12 -0.15,2.16 -0.27,4.42 -0.2,4.54 -0.1,4.28 -1,-0.03 z m 3.52,-0.94 -3.08,5.95 -2.92,-6.03 6,0.08 z"
           inkscape:connector-curvature="0"
           id="path356"
           style="fill:#7f7f7f;fill-opacity:1;fill-rule:nonzero;stroke:none" /></g></g><path
       d="m 175.1,699.35 -3.62,-0.3 -2.8,-0.39 -2.69,-0.47 -2.58,-0.57 -2.45,-0.63 -1.17,-0.35 -1.12,-0.37 -1.08,-0.38 -1.03,-0.39 -0.99,-0.41 -0.92,-0.42 -0.88,-0.44 -0.82,-0.45 -0.74,-0.45 -0.7,-0.47 -0.62,-0.48 -0.56,-0.49 -0.49,-0.51 -0.41,-0.52 -0.33,-0.52 -0.25,-0.55 c -0.01,-0.02 -0.02,-0.05 -0.02,-0.07 l -0.14,-0.5 c -0.01,-0.02 -0.01,-0.05 -0.01,-0.08 l -0.05,-0.49 -0.04,-0.49 0.01,0.09 -0.13,-0.5 0.02,0.08 -0.21,-0.48 -0.27,-0.43 -0.35,-0.43 -0.42,-0.45 -0.5,-0.43 -0.58,-0.45 -0.64,-0.44 -0.71,-0.43 -0.79,-0.43 -0.84,-0.42 -0.89,-0.4 -0.96,-0.4 -1,-0.39 -1.06,-0.37 -1.09,-0.35 -1.15,-0.34 -2.4,-0.63 -2.55,-0.56 -2.66,-0.47 -2.74,-0.37 -2.81,-0.28 -2.87,-0.18 -2.88,-0.06 0.02,-1 2.93,0.06 2.89,0.18 2.86,0.28 2.78,0.39 2.69,0.48 2.59,0.56 2.44,0.64 1.16,0.35 1.13,0.36 1.07,0.38 1.04,0.4 0.98,0.41 0.93,0.42 0.87,0.43 0.82,0.46 0.76,0.46 0.69,0.47 0.63,0.48 0.56,0.5 0.48,0.51 0.42,0.53 0.33,0.55 0.22,0.48 c 0.01,0.02 0.02,0.05 0.02,0.07 l 0.14,0.5 c 0.01,0.02 0.01,0.05 0.01,0.08 l 0.05,0.49 0.04,0.49 -0.01,-0.09 0.13,0.5 -0.02,-0.08 0.18,0.43 0.27,0.44 0.34,0.44 0.43,0.45 0.51,0.44 0.57,0.45 0.66,0.45 0.71,0.43 0.78,0.43 0.84,0.42 0.9,0.41 0.95,0.4 1.01,0.38 1.05,0.37 1.1,0.36 1.14,0.34 2.41,0.62 2.54,0.56 2.66,0.47 2.74,0.38 3.62,0.31 -0.08,0.99 z m -0.83,-3.53 5.86,3.25 -6.12,2.74 0.26,-5.99 z"
       inkscape:connector-curvature="0"
       id="path358"
       style="fill:#7f7f7f;fill-opacity:1;fill-rule:nonzero;stroke:none" /><g
       id="g360"><g
         clip-path="url(#clipPath364)"
         id="g362"><path
           d="m 205.14,686.33 -1,-1.23 c -0.03,-0.03 -0.06,-0.06 -0.1,-0.09 l -0.91,-0.65 -1.03,-0.65 -1.12,-0.64 -1.18,-0.62 -1.27,-0.6 -1.35,-0.57 -1.4,-0.56 -1.48,-0.54 -1.53,-0.52 -1.6,-0.5 -1.64,-0.46 -1.7,-0.44 -1.74,-0.42 -1.79,-0.38 -3.68,-0.68 -3.81,-0.55 -3.91,-0.4 -3.96,-0.25 -4,-0.09 -3.97,-0.08 -3.93,-0.26 -3.86,-0.39 -3.77,-0.55 -3.65,-0.67 -1.76,-0.38 -1.72,-0.41 -1.68,-0.43 -1.62,-0.46 -1.58,-0.49 -1.51,-0.5 -1.44,-0.54 -1.39,-0.55 -1.31,-0.56 -1.24,-0.59 -1.15,-0.6 -1.08,-0.61 -0.98,-0.63 -0.9,-0.63 -0.8,-0.64 -0.7,-0.65 -0.59,-0.65 -0.5,-0.65 -0.38,-0.64 -0.27,-0.63 0.02,0.07 -0.18,-0.69 0.02,0.08 -0.06,-0.7 -1,0.09 0.06,0.69 c 0,0.03 0.01,0.06 0.02,0.08 l 0.18,0.7 c 0,0.03 0.01,0.05 0.02,0.08 l 0.33,0.74 0.45,0.74 0.55,0.72 0.65,0.71 0.76,0.69 0.84,0.68 0.94,0.66 1.03,0.65 1.11,0.63 1.18,0.61 1.27,0.6 1.34,0.58 1.41,0.56 1.48,0.54 1.53,0.52 1.59,0.49 1.65,0.47 1.7,0.43 1.74,0.42 1.79,0.38 3.69,0.68 3.81,0.55 3.9,0.4 3.97,0.26 3.97,0.08 3.96,0.09 3.92,0.24 3.87,0.4 3.77,0.54 3.65,0.68 1.76,0.38 1.73,0.41 1.67,0.43 1.63,0.46 1.57,0.48 1.51,0.52 1.45,0.52 1.38,0.55 1.31,0.57 1.24,0.58 1.15,0.6 1.07,0.61 0.99,0.62 0.91,0.65 -0.09,-0.09 1,1.23 0.77,-0.63 z m -3.46,1.06 5.73,3.5 -0.64,-6.68 -5.09,3.18 z"
           inkscape:connector-curvature="0"
           id="path368"
           style="fill:#7f7f7f;fill-opacity:1;fill-rule:nonzero;stroke:none" /></g></g><g
       id="g370"><g
         clip-path="url(#clipPath374)"
         id="g372"><path
           d="m 207.31,685.83 0.34,-2.53 0.41,-1.89 0.49,-1.85 0.57,-1.84 0.64,-1.8 0.72,-1.78 0.79,-1.73 0.85,-1.71 0.91,-1.66 0.99,-1.61 1.04,-1.57 1.09,-1.52 1.14,-1.46 1.19,-1.4 1.24,-1.35 1.28,-1.27 1.32,-1.2 1.36,-1.13 1.4,-1.05 1.42,-0.96 1.46,-0.89 1.47,-0.8 1.51,-0.69 1.52,-0.61 1.54,-0.5 1.56,-0.4 1.57,-0.29 1.57,-0.18 1.57,-0.06 0.04,0.99 -1.5,0.06 -1.5,0.17 -1.51,0.28 -1.49,0.38 -1.47,0.47 -1.48,0.59 -1.45,0.67 -1.43,0.78 -1.41,0.85 -1.39,0.94 -1.36,1.02 -1.32,1.11 -1.29,1.17 -1.25,1.23 -1.21,1.31 -1.18,1.38 -1.11,1.42 -1.07,1.49 -1.02,1.54 -0.96,1.58 -0.9,1.62 -0.83,1.67 -0.77,1.7 -0.71,1.74 -0.63,1.76 -0.55,1.8 -0.49,1.8 -0.39,1.82 -0.34,2.53 -0.99,-0.14 z m 3.56,-0.69 -3.47,5.75 -2.51,-6.22 5.98,0.47 z"
           inkscape:connector-curvature="0"
           id="path378"
           style="fill:#7f7f7f;fill-opacity:1;fill-rule:nonzero;stroke:none" /></g></g><path
       d="m 239.68,699.55 2.47,-0.01 7.4,-0.09 7.3,-0.13 3.59,-0.08 3.54,-0.1 3.47,-0.11 3.41,-0.12 3.34,-0.12 3.25,-0.15 3.17,-0.14 3.08,-0.16 2.97,-0.16 2.86,-0.17 2.75,-0.18 2.63,-0.18 2.48,-0.2 2.36,-0.19 2.2,-0.21 2.06,-0.21 1.9,-0.21 1.72,-0.22 0.8,-0.11 0.76,-0.11 0.7,-0.11 0.67,-0.11 0.62,-0.12 0.58,-0.12 0.51,-0.11 0.48,-0.12 0.42,-0.11 0.39,-0.13 0.32,-0.12 0.3,-0.14 0.23,-0.13 c 0.03,-0.01 0.05,-0.03 0.07,-0.05 l 0.14,-0.12 c 0.03,-0.02 0.05,-0.04 0.07,-0.07 l 0.09,-0.11 c 0.05,-0.06 0.08,-0.12 0.1,-0.19 l 0.03,-0.12 0.09,-0.49 -0.05,0.14 0.26,-0.46 -0.07,0.1 0.41,-0.45 -0.06,0.05 0.56,-0.44 0.64,-0.4 0.77,-0.39 0.9,-0.37 0.99,-0.36 1.09,-0.32 1.18,-0.31 1.24,-0.25 1.3,-0.22 1.34,-0.18 1.38,-0.13 1.39,-0.09 1.41,-0.03 -0.02,-0.99 -1.44,0.03 -1.44,0.08 -1.41,0.14 -1.38,0.18 -1.34,0.23 -1.28,0.27 -1.21,0.31 -1.14,0.34 -1.05,0.37 -0.96,0.41 -0.85,0.43 -0.74,0.46 -0.55,0.45 c -0.02,0.01 -0.04,0.03 -0.06,0.05 l -0.41,0.45 c -0.03,0.03 -0.05,0.06 -0.07,0.1 l -0.26,0.46 c -0.02,0.05 -0.04,0.1 -0.05,0.15 l -0.08,0.44 -0.03,0.12 0.09,-0.19 -0.09,0.11 0.07,-0.07 -0.14,0.12 0.07,-0.05 -0.16,0.09 -0.21,0.1 -0.3,0.11 -0.33,0.11 -0.4,0.11 -0.45,0.11 -0.51,0.11 -0.55,0.12 -0.61,0.11 -0.65,0.11 -0.7,0.11 -0.75,0.11 -0.79,0.11 -1.71,0.22 -1.88,0.21 -2.05,0.21 -2.19,0.2 -2.36,0.19 -2.48,0.2 -2.62,0.19 -2.74,0.17 -2.86,0.17 -2.96,0.17 -3.08,0.15 -3.16,0.15 -3.25,0.14 -3.34,0.13 -3.4,0.12 -3.47,0.1 -3.53,0.1 -3.58,0.08 -7.3,0.14 -7.4,0.08 -2.47,0.01 0.01,1 z m 0.98,-3.51 -5.99,3.03 6.02,2.97 -0.03,-6 z"
       inkscape:connector-curvature="0"
       id="path380"
       style="fill:#7f7f7f;fill-opacity:1;fill-rule:nonzero;stroke:none" /><path
       d="m 239.68,699.51 2.1,-0.03 7.04,-0.27 6.95,-0.44 3.41,-0.27 3.36,-0.31 3.3,-0.35 3.25,-0.38 3.17,-0.42 3.11,-0.44 3.01,-0.47 2.92,-0.5 2.83,-0.53 2.73,-0.55 2.61,-0.58 2.5,-0.6 2.37,-0.62 2.25,-0.64 2.1,-0.66 1.96,-0.67 1.82,-0.7 1.65,-0.7 1.49,-0.72 0.68,-0.36 0.65,-0.38 0.59,-0.37 0.55,-0.38 0.51,-0.38 0.46,-0.38 0.41,-0.39 0.37,-0.4 0.32,-0.4 0.27,-0.42 0.21,-0.41 0.16,-0.44 0.1,-0.44 0.04,-0.44 0.07,-0.74 -0.01,0.1 0.23,-0.75 -0.03,0.08 0.38,-0.75 -0.04,0.06 0.53,-0.74 0.62,-0.69 0.76,-0.69 0.89,-0.7 1.03,-0.69 1.13,-0.68 1.26,-0.67 1.38,-0.67 1.47,-0.64 1.58,-0.64 1.67,-0.61 1.76,-0.59 1.84,-0.57 1.93,-0.55 2,-0.52 2.07,-0.5 2.14,-0.47 2.2,-0.44 2.24,-0.41 2.31,-0.38 2.34,-0.34 4.81,-0.58 4.91,-0.44 5,-0.26 2.52,-0.07 2.52,-0.02 -0.01,-1 -2.54,0.02 -2.54,0.07 -5.03,0.27 -4.96,0.43 -4.83,0.59 -2.36,0.35 -2.31,0.37 -2.27,0.42 -2.22,0.44 -2.15,0.48 -2.09,0.5 -2.03,0.53 -1.94,0.56 -1.87,0.57 -1.78,0.61 -1.71,0.62 -1.6,0.64 -1.51,0.66 -1.4,0.68 -1.31,0.7 -1.19,0.71 -1.07,0.73 -0.96,0.75 -0.82,0.76 -0.7,0.78 -0.53,0.74 c -0.01,0.02 -0.02,0.04 -0.03,0.07 l -0.39,0.75 c -0.01,0.02 -0.02,0.05 -0.03,0.07 l -0.23,0.75 c -0.01,0.04 -0.02,0.07 -0.02,0.1 l -0.08,0.76 -0.02,0.31 -0.06,0.32 -0.11,0.32 -0.16,0.32 -0.22,0.34 -0.26,0.34 -0.32,0.35 -0.37,0.35 -0.42,0.35 -0.47,0.36 -0.51,0.35 -0.58,0.36 -0.6,0.35 -0.66,0.35 -1.44,0.7 -1.62,0.69 -1.79,0.68 -1.92,0.67 -2.08,0.65 -2.23,0.63 -2.35,0.62 -2.48,0.59 -2.6,0.58 -2.71,0.54 -2.81,0.53 -2.92,0.5 -3,0.47 -3.09,0.44 -3.16,0.41 -3.23,0.39 -3.29,0.34 -3.35,0.31 -3.4,0.27 -6.91,0.44 -7.03,0.27 -2.09,0.03 0.01,1 z m 0.96,-3.51 -5.97,3.07 6.04,2.93 -0.07,-6 z"
       inkscape:connector-curvature="0"
       id="path382"
       style="fill:#7f7f7f;fill-opacity:1;fill-rule:nonzero;stroke:none" /><g
       id="g384"><g
         clip-path="url(#clipPath388)"
         id="g386"><path
           d="m 209.75,686.36 1.1,-1.26 c 0.02,-0.03 0.06,-0.06 0.09,-0.08 l 0.64,-0.44 0.7,-0.45 1.52,-0.88 1.69,-0.86 1.85,-0.85 2,-0.83 2.15,-0.81 2.3,-0.78 2.42,-0.76 2.55,-0.74 2.67,-0.7 2.78,-0.68 2.88,-0.65 2.99,-0.61 3.08,-0.58 3.16,-0.55 3.24,-0.5 3.31,-0.47 3.37,-0.42 3.43,-0.38 3.48,-0.33 3.52,-0.29 3.56,-0.24 3.58,-0.19 3.61,-0.14 3.61,-0.09 3.64,-0.02 3.65,-0.03 3.61,-0.07 7.17,-0.26 7.06,-0.43 3.46,-0.27 3.42,-0.31 3.36,-0.34 3.3,-0.37 3.22,-0.41 3.15,-0.44 3.07,-0.46 2.97,-0.5 2.87,-0.52 2.76,-0.55 2.66,-0.56 2.53,-0.59 2.4,-0.61 2.27,-0.63 2.12,-0.64 1.97,-0.65 1.82,-0.68 1.65,-0.68 1.48,-0.69 0.66,-0.35 0.63,-0.35 0.57,-0.35 0.54,-0.35 0.47,-0.35 0.43,-0.35 0.38,-0.35 0.32,-0.34 0.27,-0.34 0.23,-0.34 0.15,-0.31 0.13,-0.33 -0.03,0.07 0.09,-0.37 0.02,-0.3 0.99,0.08 -0.04,0.44 -0.08,0.37 c 0,0.02 -0.01,0.05 -0.02,0.07 l -0.16,0.42 -0.22,0.42 -0.27,0.4 -0.33,0.41 -0.37,0.39 -0.43,0.39 -0.47,0.37 -0.52,0.39 -0.56,0.36 -0.61,0.38 -0.64,0.35 -0.71,0.37 -1.52,0.71 -1.68,0.7 -1.85,0.68 -2,0.67 -2.15,0.65 -2.29,0.63 -2.41,0.62 -2.56,0.59 -2.67,0.57 -2.77,0.54 -2.89,0.53 -2.98,0.5 -3.08,0.46 -3.16,0.44 -3.24,0.41 -3.31,0.38 -3.38,0.34 -3.42,0.3 -3.48,0.27 -7.09,0.44 -7.18,0.26 -3.62,0.07 -3.66,0.03 -3.61,0.02 -3.6,0.09 -3.59,0.14 -3.57,0.18 -3.54,0.24 -3.52,0.3 -3.46,0.32 -3.41,0.39 -3.36,0.42 -3.3,0.46 -3.22,0.5 -3.14,0.55 -3.07,0.57 -2.97,0.61 -2.86,0.64 -2.77,0.67 -2.64,0.71 -2.53,0.72 -2.4,0.75 -2.26,0.78 -2.13,0.79 -1.97,0.81 -1.81,0.83 -1.64,0.85 -1.48,0.85 -0.67,0.43 -0.64,0.44 0.09,-0.08 -1.1,1.26 -0.75,-0.66 z m 3.43,1.12 -5.78,3.41 0.75,-6.67 5.03,3.26 z"
           inkscape:connector-curvature="0"
           id="path392"
           style="fill:#7f7f7f;fill-opacity:1;fill-rule:nonzero;stroke:none" /></g></g><g
       id="g394"><g
         clip-path="url(#clipPath398)"
         id="g396"><path
           d="m 208.66,686.01 0.38,-1 c 0.02,-0.04 0.04,-0.09 0.07,-0.13 l 0.89,-1.12 1.06,-1.12 1.19,-1.11 1.33,-1.09 1.46,-1.07 1.57,-1.03 1.69,-1.02 1.8,-0.97 1.89,-0.96 2.01,-0.92 2.09,-0.88 2.18,-0.85 2.26,-0.81 2.34,-0.76 2.41,-0.73 2.48,-0.68 2.53,-0.64 2.6,-0.58 2.64,-0.53 2.68,-0.48 2.73,-0.41 2.77,-0.36 2.78,-0.3 2.8,-0.25 2.83,-0.17 2.84,-0.1 2.84,-0.04 5.66,-0.06 5.6,-0.19 5.52,-0.29 5.37,-0.41 2.63,-0.23 2.57,-0.26 2.52,-0.28 2.46,-0.3 2.4,-0.33 2.32,-0.34 2.24,-0.36 2.16,-0.38 2.07,-0.39 1.98,-0.41 1.88,-0.42 1.76,-0.43 1.67,-0.45 1.54,-0.45 1.41,-0.47 1.29,-0.47 1.15,-0.48 1.01,-0.48 0.86,-0.49 0.71,-0.48 0.53,-0.47 -0.05,0.05 0.43,-0.51 -0.07,0.1 0.26,-0.51 -0.05,0.14 0.09,-0.52 0.99,0.17 -0.09,0.52 c -0.01,0.05 -0.03,0.1 -0.05,0.14 l -0.25,0.51 c -0.02,0.03 -0.04,0.07 -0.07,0.1 l -0.42,0.51 c -0.02,0.02 -0.04,0.03 -0.06,0.05 l -0.63,0.55 -0.78,0.52 -0.91,0.52 -1.06,0.51 -1.19,0.49 -1.32,0.48 -1.45,0.48 -1.57,0.46 -1.68,0.45 -1.79,0.44 -1.89,0.42 -1.99,0.41 -2.09,0.39 -2.17,0.39 -2.26,0.36 -2.33,0.35 -2.4,0.32 -2.48,0.3 -2.53,0.28 -2.59,0.27 -2.64,0.23 -5.39,0.41 -5.54,0.29 -5.62,0.19 -5.65,0.06 -2.83,0.03 -2.8,0.11 -2.81,0.17 -2.78,0.24 -2.77,0.3 -2.74,0.36 -2.7,0.41 -2.66,0.48 -2.62,0.52 -2.58,0.57 -2.5,0.63 -2.46,0.68 -2.39,0.71 -2.31,0.77 -2.24,0.79 -2.15,0.84 -2.07,0.87 -1.97,0.91 -1.87,0.93 -1.76,0.96 -1.65,1 -1.53,1 -1.41,1.03 -1.28,1.05 -1.15,1.06 -1.01,1.07 -0.88,1.11 0.07,-0.13 -0.38,1 -0.93,-0.36 z m 3.62,0.27 -4.88,4.61 -0.75,-6.67 5.63,2.06 z"
           inkscape:connector-curvature="0"
           id="path402"
           style="fill:#7f7f7f;fill-opacity:1;fill-rule:nonzero;stroke:none" /></g></g><g
       id="g404"><g
         clip-path="url(#clipPath408)"
         id="g406"><path
           d="m 78.252,613.36 -0.886,-0.5 c -0.04,-0.02 -0.083,-0.04 -0.127,-0.05 l -1.223,-0.29 -1.333,-0.26 -1.4,-0.24 -1.464,-0.19 -1.507,-0.16 -1.545,-0.12 -1.573,-0.07 -1.584,-0.02 -1.568,-0.03 -1.543,-0.07 -1.517,-0.11 -1.477,-0.16 -1.433,-0.19 -1.372,-0.23 -1.3,-0.26 -1.201,-0.28 -1.107,-0.31 -1.001,-0.33 -0.859,-0.35 -0.726,-0.35 -0.569,-0.36 0.063,0.05 -0.45,-0.39 0.067,0.07 -0.157,-0.2 -0.089,-0.15 0.043,0.09 -0.075,-0.21 0.028,0.12 -0.023,-0.2 -0.993,0.11 0.022,0.2 c 0.005,0.04 0.014,0.08 0.028,0.12 l 0.075,0.2 c 0.012,0.03 0.026,0.06 0.043,0.09 l 0.151,0.24 0.158,0.2 c 0.02,0.03 0.042,0.05 0.067,0.08 l 0.45,0.39 c 0.02,0.01 0.041,0.03 0.063,0.04 l 0.661,0.41 0.789,0.38 0.926,0.37 1.039,0.34 1.143,0.32 1.244,0.3 1.325,0.25 1.403,0.24 1.462,0.19 1.508,0.16 1.543,0.12 1.577,0.07 1.567,0.02 1.551,0.03 1.547,0.07 1.515,0.11 1.478,0.16 1.431,0.19 1.375,0.23 1.292,0.25 1.222,0.29 -0.127,-0.05 0.885,0.5 0.488,-0.87 z m -2.587,2.56 6.7,0.33 -3.757,-5.56 -2.943,5.23 z"
           inkscape:connector-curvature="0"
           id="path412"
           style="fill:#7f7f7f;fill-opacity:1;fill-rule:nonzero;stroke:none" /></g></g><g
       id="g414"><g
         clip-path="url(#clipPath418)"
         id="g416"><path
           d="m 82.524,611.22 0.141,-1.03 c 0.003,-0.02 0.008,-0.05 0.015,-0.07 l 0.255,-0.87 0.302,-0.85 0.324,-0.77 0.352,-0.71 0.368,-0.63 0.395,-0.54 0.434,-0.46 0.44,-0.35 c 0.032,-0.03 0.067,-0.05 0.104,-0.06 l 0.397,-0.18 c 0.04,-0.02 0.081,-0.03 0.124,-0.04 l 0.405,-0.07 0.405,-0.07 -0.124,0.04 0.398,-0.18 -0.104,0.06 0.39,-0.3 -0.054,0.05 0.383,-0.41 0.327,-0.45 0.335,-0.56 0.31,-0.64 0.303,-0.73 0.283,-0.79 0.246,-0.84 0.227,-0.9 0.19,-0.95 0.264,-1.98 0.072,-1.01 0.022,-1.02 0.999,0.03 -0.023,1.06 -0.078,1.08 -0.276,2.04 -0.2,0.99 -0.238,0.94 -0.264,0.9 -0.302,0.84 -0.327,0.78 -0.35,0.71 -0.385,0.64 -0.408,0.55 -0.383,0.4 c -0.016,0.02 -0.034,0.04 -0.053,0.05 l -0.39,0.31 c -0.032,0.03 -0.067,0.05 -0.104,0.06 l -0.397,0.18 c -0.04,0.02 -0.082,0.03 -0.124,0.04 l -0.405,0.07 -0.405,0.07 0.124,-0.04 -0.398,0.18 0.104,-0.06 -0.34,0.26 -0.346,0.35 -0.34,0.46 -0.337,0.57 -0.324,0.65 -0.305,0.72 -0.283,0.79 -0.255,0.87 0.015,-0.07 -0.14,1.03 -0.991,-0.14 z m 3.601,-0.53 -3.76,5.56 -2.188,-6.35 5.948,0.79 z"
           inkscape:connector-curvature="0"
           id="path422"
           style="fill:#7f7f7f;fill-opacity:1;fill-rule:nonzero;stroke:none" /></g></g><g
       id="g424"><g
         clip-path="url(#clipPath428)"
         id="g426"><path
           d="m 328.64,638.12 -0.02,-1.24 -0.06,-2.01 -0.09,-1.95 -0.1,-1.85 -0.11,-1.76 -0.12,-1.65 -0.15,-1.52 -0.14,-1.36 -0.08,-0.63 -0.08,-0.59 -0.08,-0.52 -0.08,-0.5 -0.08,-0.45 -0.09,-0.39 -0.08,-0.35 -0.1,-0.31 -0.1,-0.24 c 0,-0.02 -0.02,-0.05 -0.03,-0.07 l -0.09,-0.16 c -0.01,-0.02 -0.03,-0.05 -0.05,-0.07 l -0.08,-0.1 c -0.06,-0.07 -0.14,-0.12 -0.23,-0.15 l -0.09,-0.03 -0.09,-0.03 0.23,0.15 -0.09,-0.1 0.06,0.08 -0.09,-0.16 0.03,0.07 -0.08,-0.22 -0.08,-0.25 -0.08,-0.3 -0.08,-0.37 -0.08,-0.42 -0.08,-0.48 -0.07,-0.51 -0.08,-0.58 -0.08,-0.61 -0.14,-1.35 -0.13,-1.5 -0.13,-1.63 -0.11,-1.75 -0.1,-1.85 -0.09,-1.93 -0.07,-2 -0.04,-2.04 -0.05,-4.18 -0.99,0.01 0.04,4.19 0.05,2.06 0.06,2.01 0.09,1.93 0.1,1.86 0.11,1.76 0.13,1.65 0.14,1.52 0.14,1.36 0.08,0.64 0.08,0.57 0.08,0.54 0.08,0.5 0.09,0.45 0.08,0.39 0.09,0.37 0.1,0.3 0.08,0.21 c 0.01,0.03 0.03,0.05 0.04,0.08 l 0.09,0.15 c 0.01,0.03 0.03,0.05 0.05,0.08 l 0.08,0.1 c 0.06,0.07 0.14,0.12 0.23,0.15 l 0.09,0.03 0.09,0.03 -0.23,-0.15 0.09,0.09 -0.06,-0.07 0.09,0.16 -0.03,-0.08 0.07,0.2 0.08,0.24 0.08,0.32 0.08,0.37 0.08,0.42 0.09,0.48 0.07,0.52 0.08,0.57 0.08,0.61 0.14,1.36 0.14,1.49 0.12,1.64 0.11,1.75 0.1,1.85 0.09,1.94 0.07,1.98 0.01,1.24 1,-0.01 z m -3.51,-0.95 3.09,5.96 2.91,-6.05 -6,0.09 z"
           inkscape:connector-curvature="0"
           id="path432"
           style="fill:#7f7f7f;fill-opacity:1;fill-rule:nonzero;stroke:none" /></g></g><g
       id="g434"><g
         clip-path="url(#clipPath438)"
         id="g436"><path
           d="m 361.78,638.1 0.08,-1.26 0.26,-2.04 0.33,-1.96 0.38,-1.88 0.43,-1.78 0.5,-1.68 0.52,-1.53 0.58,-1.4 0.29,-0.64 0.31,-0.6 0.32,-0.55 0.31,-0.5 0.35,-0.47 0.33,-0.4 0.36,-0.37 0.35,-0.31 0.39,-0.26 0.39,-0.18 c 0.02,-0.02 0.05,-0.02 0.07,-0.03 l 0.33,-0.1 c 0.04,-0.01 0.07,-0.02 0.1,-0.02 l 0.34,-0.03 0.34,-0.03 -0.1,0.02 0.33,-0.1 -0.08,0.03 0.33,-0.16 0.29,-0.18 0.26,-0.24 0.31,-0.3 0.28,-0.35 0.31,-0.42 0.28,-0.46 0.3,-0.52 0.29,-0.55 0.27,-0.6 0.56,-1.35 0.5,-1.49 0.49,-1.62 0.42,-1.74 0.38,-1.84 0.31,-1.92 0.26,-1.99 0.2,-2.04 0.12,-2.08 0.03,-2.09 1,0.02 -0.04,2.13 -0.12,2.11 -0.19,2.08 -0.27,2.02 -0.33,1.96 -0.38,1.88 -0.44,1.78 -0.49,1.67 -0.53,1.54 -0.57,1.38 -0.29,0.65 -0.31,0.6 -0.32,0.54 -0.33,0.52 -0.34,0.45 -0.35,0.43 -0.35,0.36 -0.38,0.32 -0.39,0.25 -0.33,0.15 c -0.03,0.02 -0.05,0.02 -0.08,0.03 l -0.33,0.1 c -0.03,0.01 -0.06,0.02 -0.1,0.02 l -0.33,0.03 -0.34,0.03 0.1,-0.02 -0.33,0.1 0.07,-0.03 -0.27,0.13 -0.29,0.17 -0.29,0.25 -0.3,0.29 -0.3,0.38 -0.3,0.4 -0.3,0.47 -0.29,0.52 -0.29,0.55 -0.28,0.61 -0.55,1.33 -0.51,1.5 -0.48,1.62 -0.43,1.75 -0.38,1.84 -0.32,1.92 -0.26,1.98 -0.08,1.26 -0.99,-0.06 z m 3.55,-0.8 -3.33,5.83 -2.67,-6.16 6,0.33 z"
           inkscape:connector-curvature="0"
           id="path442"
           style="fill:#7f7f7f;fill-opacity:1;fill-rule:nonzero;stroke:none" /></g></g></g></svg>